<svg width="29" height="25" viewBox="0 0 29 25" fill="none" xmlns="http://www.w3.org/2000/svg">
<path opacity="0.3" d="M27.5744 6.91746C27.3914 6.91746 27.2375 7.00051 27.1321 7.14147C27.0286 7.28009 26.9749 7.47003 26.9749 7.68607V10.1266H8.68223C8.91319 9.75505 8.99239 9.37054 8.99239 8.88943C8.99239 7.35185 7.63673 6.115 5.79538 6.115C4.05618 6.115 2.59836 7.3499 2.59836 8.88943C2.59836 9.37054 2.67758 9.75506 2.90853 10.1266H2.09904V1.66861C2.09904 1.45257 2.04534 1.26263 1.94178 1.12402C1.83647 0.983051 1.68252 0.9 1.49952 0.9C1.31652 0.9 1.16257 0.983051 1.05726 1.12402C0.953693 1.26263 0.9 1.45257 0.9 1.66861V10.8952V12.3663V13.7035V16.3779V23.3314C0.9 23.5474 0.953693 23.7374 1.05726 23.876C1.16257 24.0169 1.31652 24.1 1.49952 24.1C1.68252 24.1 1.83647 24.0169 1.94178 23.876C2.04534 23.7374 2.09904 23.5474 2.09904 23.3314V17.1466H26.875V23.3314C26.875 23.5474 26.9287 23.7374 27.0322 23.876C27.1375 24.0169 27.2915 24.1 27.4745 24.1C27.6575 24.1 27.8114 24.0169 27.9168 23.876C28.0203 23.7374 28.074 23.5474 28.074 23.3314V16.3779V10.8952V7.70305C28.1278 7.53957 28.094 7.35015 28.0113 7.20259C27.9255 7.04938 27.7724 6.91746 27.5744 6.91746ZM3.89731 8.88943C3.89731 8.60055 4.09363 8.29292 4.44116 8.05231C4.78595 7.81361 5.26546 7.65221 5.79538 7.65221C6.37669 7.65221 6.85517 7.81434 7.18571 8.05136C7.51751 8.28927 7.69346 8.59639 7.69346 8.88943C7.69346 9.1783 7.49714 9.48593 7.1496 9.72654C6.80482 9.96525 6.32531 10.1266 5.79538 10.1266C5.26546 10.1266 4.78595 9.96525 4.44116 9.72654C4.09363 9.48593 3.89731 9.1783 3.89731 8.88943ZM2.19895 15.7429V13.837V12.4998V11.7977H26.9749V15.7429H2.19895Z" fill="black" stroke="black" stroke-width="0.2" stroke-miterlimit="10"/>
</svg>
