<svg width="32" height="28" viewBox="0 0 32 28" fill="none" xmlns="http://www.w3.org/2000/svg">
<path d="M2.59643 14.0072L2.29032 14.0072L2.28893 14.0072C1.48185 14.0147 0.85 14.72 0.85 15.5642C0.85 16.2762 1.29578 16.8878 1.92067 17.0693L4.47003 25.0292L4.47005 25.0292C4.91937 26.4304 6.11594 27.3962 7.48751 27.4518L7.4875 27.4519H7.49359H24.5198V27.4521L24.5259 27.4518C25.8912 27.3962 27.0939 26.4306 27.5433 25.0292L27.5433 25.0292L30.0925 17.07C30.7131 16.8933 31.1634 16.2751 31.1634 15.5642L31.1633 15.563C31.1568 14.7208 30.5261 14.0138 29.723 14.0138H3.5866V4.07077C3.5866 3.09717 4.30587 2.33163 5.16502 2.33163C5.16872 2.33163 5.1724 2.33167 5.17607 2.33174C5.05097 2.65318 4.98501 3.00307 4.98501 3.35739C4.98501 4.05296 5.2315 4.71729 5.69051 5.21568C5.87356 5.41695 6.11715 5.52864 6.38332 5.52864C6.64953 5.52864 6.89316 5.41691 7.07622 5.21559C7.0763 5.21549 7.07639 5.21539 7.07648 5.21529L9.12254 2.98316L9.12298 2.98267C9.30523 2.78209 9.40202 2.52107 9.40202 2.24768C9.40202 1.97637 9.30648 1.70727 9.12167 1.51127C8.66311 1.01392 8.05429 0.737219 7.40443 0.736975C6.81478 0.730446 6.2574 0.962114 5.82036 1.37151C5.61015 1.31125 5.39023 1.27862 5.16502 1.27862C3.73756 1.27862 2.59643 2.54759 2.59643 4.07077V14.0072ZM6.39129 2.23738L6.39231 2.23626C6.66518 1.93594 7.02153 1.77678 7.40357 1.77678C7.78561 1.77678 8.14196 1.93594 8.41482 2.23626C8.41564 2.23716 8.41621 2.23807 8.41679 2.23997C8.41753 2.24242 8.41785 2.24535 8.41785 2.24768C8.41785 2.25002 8.41753 2.25295 8.41679 2.2554C8.41624 2.25723 8.41568 2.25814 8.41492 2.259C8.41489 2.25904 8.41486 2.25907 8.41482 2.25911L6.38044 4.47851C6.1134 4.17804 5.96318 3.78369 5.96318 3.364C5.96318 2.93093 6.1182 2.53194 6.39129 2.23738ZM26.6095 24.6866L26.6094 24.6868C26.2789 25.7217 25.3835 26.4121 24.3937 26.4121H7.61362C6.62404 26.4121 5.73444 25.7285 5.39788 24.6866C5.39785 24.6865 5.39781 24.6864 5.39778 24.6863L2.97595 17.1211H29.0373L26.6095 24.6866ZM29.723 16.0747H2.28431C2.04336 16.0747 1.82817 15.8575 1.82817 15.5642C1.82817 15.2709 2.04336 15.0536 2.28431 15.0536H29.717C29.958 15.0536 30.1732 15.2709 30.1732 15.5642C30.1732 15.8641 29.958 16.0747 29.723 16.0747Z" fill="#1B181C" stroke="#B3B3B3" stroke-width="0.3"/>
</svg>
