<svg width="20" height="19" viewBox="0 0 20 19" fill="none" xmlns="http://www.w3.org/2000/svg">
<g opacity="0.3">
<path opacity="0.3" d="M5.89996 5.5H8.49997C8.69997 5.5 8.79997 5.30001 8.79997 5.20001V2.60001C8.79997 2.40001 8.59997 2.29999 8.49997 2.29999H5.89996C5.69996 2.29999 5.59998 2.50001 5.59998 2.60001V5.20001C5.59998 5.30001 5.69996 5.5 5.89996 5.5ZM6.29997 2.89999H8.19997V4.79999H6.29997V2.89999Z" fill="black"/>
<path opacity="0.3" d="M10.4 5.5H13C13.2 5.5 13.3 5.30001 13.3 5.20001V2.60001C13.3 2.40001 13.1 2.29999 13 2.29999H10.4C10.2 2.29999 10.1 2.50001 10.1 2.60001V5.20001C10.1 5.30001 10.2 5.5 10.4 5.5ZM10.7 2.89999H12.6V4.79999H10.7V2.89999Z" fill="black"/>
<path opacity="0.3" d="M8.49997 10C8.69997 10 8.79997 9.80001 8.79997 9.70001V7.10001C8.79997 6.90001 8.59997 6.79999 8.49997 6.79999H5.89996C5.69996 6.79999 5.59998 7.00001 5.59998 7.10001V9.70001C5.59998 9.90001 5.79996 10 5.89996 10H8.49997ZM6.29997 7.5H8.19997V9.39999H6.29997V7.5Z" fill="black"/>
<path opacity="0.3" d="M10.4 10H13C13.2 10 13.3 9.80001 13.3 9.70001V7.10001C13.3 6.90001 13.1 6.79999 13 6.79999H10.4C10.2 6.79999 10.1 7.00001 10.1 7.10001V9.70001C10.1 9.90001 10.2 10 10.4 10ZM10.7 7.5H12.6V9.39999H10.7V7.5Z" fill="black"/>
<path opacity="0.3" d="M18.7 3.89999H15V0.299988C15 0.0999878 14.8 0 14.7 0H4.3C4.1 0 4 0.199988 4 0.299988V3.89999H0.300003C0.100003 3.89999 0 4.10001 0 4.20001V6.60001V9.20001V11.2V13.8V17.9C0 18.1 0.200003 18.2 0.300003 18.2H4.39999H14.8H18.9C19.1 18.2 19.2 18 19.2 17.9V13.8V11.2V9.20001V6.60001V4.20001C19 4.00001 18.9 3.89999 18.7 3.89999ZM0.5 7H2.39999V8.89999H0.5V7ZM0.5 11.5H2.39999V13.4H0.5V11.5ZM3.89999 17.5H0.5V14.1H2.7C2.9 14.1 3 13.9 3 13.8V11.2C3 11 2.8 10.9 2.7 10.9H0.5V9.60001H2.7C2.9 9.60001 3 9.39999 3 9.29999V6.70001C3 6.50001 2.8 6.39999 2.7 6.39999H0.5V4.70001H3.89999V17.5ZM10.9 17.5H8V12.5H10.9V17.5ZM14.3 4.20001V17.5H11.5V12.2C11.5 12 11.3 11.9 11.2 11.9H7.7C7.5 11.9 7.39999 12.1 7.39999 12.2V17.5H4.7V4.20001V0.600006H14.4V4.20001H14.3ZM18.4 13.4H16.5V11.5H18.4V13.4ZM18.4 8.79999H16.5V7H18.4V8.79999ZM18.4 6.29999H16.2C16 6.29999 15.9 6.50001 15.9 6.60001V9.20001C15.9 9.40001 16.1 9.5 16.2 9.5H18.4V10.8H16.2C16 10.8 15.9 11 15.9 11.1V13.7C15.9 13.9 16.1 14 16.2 14H18.4V17.4H15V4.5H18.4V6.29999Z" fill="black"/>
</g>
</svg>
