<svg width="20" height="23" viewBox="0 0 20 23" fill="none" xmlns="http://www.w3.org/2000/svg">
<g opacity="0.3">
<path opacity="0.3" d="M19.6273 0H0.372674C0.124227 0 0 0.248458 0 0.496906V22.4845C0 22.7329 0.248451 22.9814 0.372674 22.9814H19.6273C19.8758 22.9814 20 22.7329 20 22.4845V0.496906C20 0.124235 19.8758 0 19.6273 0ZM13.5404 0.869561V2.36026C13.5404 2.60871 13.7888 2.85715 13.9131 2.85715C14.1615 2.85715 14.2857 2.60871 14.2857 2.36026V0.869561H16.0248V2.36026C16.0248 2.60871 16.2733 2.85715 16.3975 2.85715C16.646 2.85715 16.7702 2.60871 16.7702 2.36026V0.869561H18.882V4.59627H0.496906V0.869561H13.5404ZM0.745349 21.9876V5.71427H19.1304V21.9876H0.745349Z" fill="black"/>
<path opacity="0.3" d="M9.93777 9.31677C7.32907 9.31677 5.21729 11.4286 5.21729 14.0373C5.21729 16.6459 7.32907 18.7577 9.93777 18.7577C12.5465 18.7577 14.6583 16.6459 14.6583 14.0373C14.7825 11.4286 12.6707 9.31677 9.93777 9.31677ZM9.93777 18.0124C7.82596 18.0124 5.96262 16.2733 5.96262 14.1615C5.96262 12.0497 7.70174 10.3105 9.93777 10.3105C12.1738 10.3105 13.9129 12.0497 13.9129 14.1615C13.9129 16.2733 12.1738 18.0124 9.93777 18.0124Z" fill="black"/>
</g>
</svg>
