<svg width="19" height="33" viewBox="0 0 19 33" fill="none" xmlns="http://www.w3.org/2000/svg">
<g opacity="0.3">
<path opacity="0.3" d="M17.997 5.99902H0.545364C0.218146 5.99902 0 6.21717 0 6.54439V25.7412C0 26.0684 0.218146 26.2866 0.545364 26.2866H17.997C18.3242 26.2866 18.5424 26.0684 18.5424 25.7412V6.54439C18.5424 6.21717 18.2152 5.99902 17.997 5.99902ZM17.4516 25.1958H0.981648V6.98068H17.4516V25.1958Z" fill="black"/>
<path opacity="0.3" d="M7.0896 19.7422H7.41683L7.96219 23.6688C7.96219 23.887 8.18034 24.1051 8.50755 24.1051H9.9255C10.1436 24.1051 10.3618 23.887 10.4709 23.6688L11.0162 19.7422H11.3434C11.6707 19.7422 11.8888 19.5241 11.8888 19.1968V12.8706C11.8888 12.5434 11.6707 12.3253 11.3434 12.3253C11.6707 11.889 11.8888 11.3436 11.8888 10.6892C11.8888 9.27121 10.689 8.07141 9.27106 8.07141C7.85311 8.07141 6.65332 9.27121 6.65332 10.6892C6.65332 11.3436 6.87147 11.889 7.19868 12.3253C6.87147 12.3253 6.65332 12.5434 6.65332 12.8706V19.3059C6.65332 19.5241 6.87146 19.7422 7.0896 19.7422ZM10.7981 13.3069V18.6515H10.5799H7.96219H7.74405V13.3069H10.7981ZM9.4892 23.1235H8.94384L8.50755 19.7422H10.0346L9.4892 23.1235ZM7.63497 10.6892C7.63497 9.81658 8.39848 9.05307 9.27106 9.05307C10.1436 9.05307 10.9072 9.81658 10.9072 10.6892C10.9072 11.5617 10.1436 12.3253 9.27106 12.3253C8.39848 12.3253 7.63497 11.5617 7.63497 10.6892Z" fill="black"/>
<path opacity="0.3" d="M6.21708 4.25384L9.27113 1.19981L12.3252 4.25384C12.4342 4.36291 12.5433 4.36291 12.6524 4.36291C12.7615 4.36291 12.8705 4.36291 12.9796 4.25384C13.1977 4.03569 13.1977 3.70848 12.9796 3.49033L9.59835 0.109079C9.48927 6.65565e-06 9.3802 0 9.27113 0C9.16205 0 9.05298 6.65565e-06 8.9439 0.109079L5.56266 3.49033C5.34451 3.70848 5.34451 4.03569 5.56266 4.25384C5.67173 4.47199 5.99894 4.47199 6.21708 4.25384Z" fill="black"/>
<path opacity="0.3" d="M12.2162 27.9226L9.16219 30.9767L6.10816 27.9226C5.89002 27.7045 5.56279 27.7045 5.34464 27.9226C5.12649 28.1408 5.12649 28.468 5.34464 28.6861L8.7259 32.0674C8.83498 32.1765 8.94405 32.1765 9.05312 32.1765C9.1622 32.1765 9.27127 32.1765 9.38035 32.0674L12.7616 28.6861C12.9797 28.468 12.9797 28.1408 12.7616 27.9226C12.7616 27.8136 12.4344 27.8136 12.2162 27.9226Z" fill="black"/>
</g>
</svg>
