<svg width="25" height="19" viewBox="0 0 25 19" fill="none" xmlns="http://www.w3.org/2000/svg">
<g opacity="0.3">
<path opacity="0.3" d="M0.599991 12.3C1.49999 12.3 1.89999 12.5 2.39999 12.8C2.89999 13.1 3.5 13.4 4.5 13.4C5.6 13.4 6.09999 13.1 6.59999 12.8C7.09999 12.5 7.49999 12.3 8.39999 12.3C9.29999 12.3 9.7 12.5 10.2 12.8C10.7 13.1 11.3 13.4 12.3 13.4C13.4 13.4 13.9 13.1 14.4 12.8C14.9 12.5 15.3 12.3 16.2 12.3C17.1 12.3 17.5 12.5 18 12.8C18.5 13.1 19.1 13.4 20.1 13.4C21.2 13.4 21.7 13.1 22.2 12.8C22.7 12.5 23.1 12.3 24 12.3C24.2 12.3 24.4 12.1 24.4 11.9C24.4 11.7 24.2 11.5 24 11.5C22.9 11.5 22.4 11.8 21.9 12.1C21.4 12.4 21 12.6 20.1 12.6C19.7 12.6 19.4 12.6 19.1 12.5V2.29999C19.1 1.49999 19.8 0.799988 20.6 0.799988C21.2 0.799988 21.7 1.10001 21.9 1.60001C22 1.80001 22.2 1.89999 22.4 1.79999C22.6 1.69999 22.7 1.49999 22.6 1.29999C22.2 0.499988 21.4 0 20.5 0C19.2 0 18.2 0.999988 18.2 2.29999V4.89999H13.6V2.29999C13.6 1.49999 14.3 0.799988 15.1 0.799988C15.7 0.799988 16.2 1.10001 16.4 1.60001C16.5 1.80001 16.7 1.89999 16.9 1.79999C17.1 1.69999 17.2 1.49999 17.1 1.29999C16.7 0.499988 15.9 0 15 0C13.7 0 12.7 0.999988 12.7 2.29999V12.6C12.5 12.6 12.3 12.7 12.1 12.7C11.2 12.7 10.8 12.5 10.3 12.2C9.8 11.9 9.2 11.6 8.2 11.6C7.1 11.6 6.59999 11.9 6.09999 12.2C5.59999 12.5 5.2 12.7 4.3 12.7C3.4 12.7 3 12.5 2.5 12.2C2 11.9 1.39999 11.6 0.399994 11.6C0.199994 11.6 0 11.8 0 12C0.2 12.1 0.399991 12.3 0.599991 12.3ZM18.3 5.69998V8.69998H13.7V5.69998H18.3ZM13.7 9.39999H18.3V12.1C17.8 11.8 17.2 11.5 16.2 11.5C15.1 11.5 14.6 11.8 14.1 12.1C14 12.2 13.9 12.2 13.8 12.3V9.39999H13.7Z" fill="black"/>
<path opacity="0.3" d="M24 16.4C22.9 16.4 22.3999 16.7 21.8999 17C21.3999 17.3 20.9999 17.5 20.0999 17.5C19.1999 17.5 18.8 17.3 18.3 17C17.8 16.7 17.2 16.4 16.2 16.4C15.1 16.4 14.5999 16.7 14.0999 17C13.5999 17.3 13.2 17.5 12.3 17.5C11.4 17.5 11 17.3 10.5 17C9.99995 16.7 9.39995 16.4 8.39995 16.4C7.29995 16.4 6.79996 16.7 6.29996 17C5.79996 17.3 5.39995 17.5 4.49995 17.5C3.59995 17.5 3.19995 17.3 2.69995 17C2.19995 16.7 1.59995 16.4 0.599945 16.4C0.399945 16.4 0.199951 16.6 0.199951 16.8C0.199951 17 0.399945 17.2 0.599945 17.2C1.49995 17.2 1.89995 17.4 2.39995 17.7C2.89995 18 3.49995 18.3 4.49995 18.3C5.59995 18.3 6.09995 18 6.59995 17.7C7.09995 17.4 7.49995 17.2 8.39995 17.2C9.29995 17.2 9.69995 17.4 10.2 17.7C10.7 18 11.3 18.3 12.3 18.3C13.4 18.3 13.8999 18 14.3999 17.7C14.8999 17.4 15.3 17.2 16.2 17.2C17.1 17.2 17.5 17.4 18 17.7C18.5 18 19.0999 18.3 20.0999 18.3C21.1999 18.3 21.7 18 22.2 17.7C22.7 17.4 23.1 17.2 24 17.2C24.2 17.2 24.3999 17 24.3999 16.8C24.3999 16.6 24.2 16.4 24 16.4Z" fill="black"/>
</g>
</svg>
