<svg width="29" height="19" viewBox="0 0 29 19" fill="none" xmlns="http://www.w3.org/2000/svg">
<g opacity="0.3">
<path opacity="0.3" d="M26.3523 11.1C25.5523 10.8 23.9523 10.4 22.5523 10.1C21.7523 9.89997 20.7523 9.69997 20.5523 9.59997C19.7523 8.99997 18.8523 8.49998 18.0523 7.99998C17.2523 7.49998 16.2523 7.09997 15.2523 6.89997C14.5523 6.79997 13.7522 6.69998 12.9522 6.69998C10.6522 6.59998 8.75225 6.69998 6.95225 6.99998C6.75225 6.99998 6.55226 7.09997 6.35226 7.09997C6.15226 7.09997 6.05226 7.19998 5.85226 7.19998C5.75226 7.19998 5.75225 7.19997 5.65225 7.29997L2.15225 9.49998C0.452246 9.79998 0.152256 12.7 0.0522556 13C-0.0477444 13.8 -0.0477505 14.6 0.45225 15.3C0.85225 15.8 1.35226 16.1 2.05226 16H2.95225C3.15225 17.3 4.35225 18.2 5.65225 18.2C6.95225 18.2 8.05226 17.2 8.35226 16H19.7523C20.0523 17.3 21.1523 18.2 22.4522 18.2C22.9522 18.2 23.5522 18 23.9522 17.8C24.5522 17.4 24.9522 16.8 25.1522 16H27.3523C27.7523 16 27.8522 15.5 27.9522 15.3C28.1523 14.5 28.2523 11.9 26.3523 11.1ZM15.0523 7.89997C15.9523 7.99997 16.8523 8.49997 17.5523 8.89997C18.1523 9.19997 18.6523 9.59998 19.2523 9.99998H11.9522V7.69998C12.2522 7.69998 12.5523 7.69998 12.8523 7.69998C13.5523 7.69998 14.3523 7.79997 15.0523 7.89997ZM6.15225 8.19998C6.25225 8.19998 6.45226 8.09997 6.55226 8.09997C6.75226 8.09997 6.95226 7.99998 7.05226 7.99998C8.25226 7.79998 9.55226 7.69998 11.0523 7.69998V9.99998H3.15225L6.15225 8.19998ZM5.75225 17.4C4.75225 17.4 3.95225 16.6 3.95225 15.6C3.95225 14.6 4.75225 13.8 5.75225 13.8C6.75225 13.8 7.55226 14.6 7.55226 15.6C7.55226 16.6 6.75225 17.4 5.75225 17.4ZM23.4522 17.1C23.1523 17.3 22.8522 17.4 22.4522 17.4C21.4522 17.4 20.6522 16.6 20.6522 15.6C20.6522 14.6 21.4522 13.8 22.4522 13.8C23.4522 13.8 24.2523 14.6 24.2523 15.6C24.3523 16.2 24.0522 16.8 23.4522 17.1ZM27.0523 15.2H25.1522C24.9522 13.9 23.8522 12.8 22.4522 12.8C21.0522 12.8 19.9523 13.8 19.7523 15.2H8.45225C8.25225 13.9 7.15225 12.8 5.75225 12.8C4.35225 12.8 3.25226 13.8 3.05226 15.2H2.15225C1.75225 15.2 1.55226 15.1 1.35226 14.8C1.05226 14.3 1.05225 13.8 1.15225 13.1C1.25225 12.5 1.45226 11.4 1.85226 10.8H21.4522C21.7522 10.9 22.0522 10.9 22.4522 11C23.7522 11.3 25.3523 11.6 26.0523 11.9C26.4523 12.1 26.7522 12.4 26.9522 12.9C27.2522 13.8 27.1523 14.8 27.0523 15.2Z" fill="black"/>
<path opacity="0.3" d="M27.7522 5L14.2522 0C14.1522 0 14.0522 0 13.9522 0L0.452212 5C0.252212 5.1 0.0522087 5.29999 0.152209 5.59999C0.252209 5.79999 0.452215 5.99999 0.752215 5.89999L14.0522 1L27.3522 5.89999C27.4522 5.89999 27.4522 5.89999 27.5522 5.89999C27.7522 5.89999 27.9522 5.79999 27.9522 5.59999C28.1522 5.39999 28.0522 5.1 27.7522 5Z" fill="black"/>
</g>
</svg>
