<svg width="23" height="31" viewBox="0 0 23 31" fill="none" xmlns="http://www.w3.org/2000/svg">
<g opacity="0.3">
<path opacity="0.3" d="M22.9994 11.0321C22.8501 11.0321 22.7008 11.0321 22.7008 11.0321C23.1487 7.44884 21.8049 4.76139 18.9682 2.67115C15.9822 0.431617 12.5482 -0.165584 9.11425 0.580929C1.49983 2.07395 -1.33692 7.74745 0.902616 15.5112C1.05192 15.8098 1.05192 16.1084 0.902616 16.2577C-0.142501 17.4521 0.15609 18.9451 0.305393 20.2889C0.305393 21.0354 0.902621 21.6326 1.35053 22.3791C1.64913 22.9763 2.39563 23.4242 2.54493 24.1707C4.03795 28.0526 7.47191 30.5907 11.5031 30.5907C15.5342 30.5907 18.9682 28.0526 20.3119 24.32C20.6105 23.5735 20.9091 22.9763 21.6556 22.5284C22.1036 22.0805 22.7008 21.334 22.7008 20.7368C22.7008 19.393 23.1487 17.7507 22.1036 16.5563C21.9543 16.407 21.9543 16.1084 22.1036 15.8098C22.4022 14.0181 22.7008 12.5251 22.9994 11.0321Z" fill="white"/>
<path opacity="0.3" fill-rule="evenodd" clip-rule="evenodd" d="M23 11.0321C22.7014 12.5251 22.2535 14.0182 21.9549 15.5112C21.9549 15.6605 21.9549 16.1084 21.9549 16.2577C23 17.6014 22.7014 19.0944 22.5521 20.4382C22.5521 21.0354 22.1042 21.7819 21.507 22.2298C20.7605 22.6777 20.4618 23.2749 20.1632 24.0214C18.9688 27.754 15.3856 30.2921 11.3544 30.2921C7.17394 30.2921 3.73998 27.9033 2.39626 23.8721C2.09765 23.2749 1.50044 22.6777 1.20183 22.0805C0.753925 21.4833 0.15672 20.7368 0.15672 19.9903C0.00741761 18.6465 -0.291196 17.1535 0.753921 15.9591C0.903223 15.8098 0.753921 15.3619 0.753921 15.2126C-1.48562 7.59814 1.35113 1.92465 8.96556 0.282319C12.5488 -0.464193 15.8335 0.282322 18.8195 2.37256C21.6563 4.46279 23 7.29953 22.5521 10.7335C22.8507 11.0321 23 11.0321 23 11.0321ZM3.88928 21.0354C5.233 26.1116 7.47254 28.3512 11.3544 28.5005C15.3856 28.6498 17.6251 26.5596 19.2674 21.0354C20.7605 21.334 21.0591 20.4382 20.9098 19.0944C20.9098 18.7958 20.9098 18.6465 20.9098 18.3479C20.9098 17.6014 20.4618 17.3028 19.7153 17.1535C18.3716 16.8549 16.8786 16.7056 15.6842 16.1084C12.9967 15.0633 10.3093 15.0633 7.47253 15.9591C6.12881 16.407 4.63579 16.7056 3.14277 17.1535C2.84416 17.3028 2.24696 17.4521 2.09766 17.7507C1.35114 19.2437 2.24695 20.8861 3.88928 21.0354ZM20.9098 11.1814C21.3577 7.74745 20.0139 5.35861 17.3265 3.71628C13.4446 1.47674 9.41346 1.47674 5.53159 3.86558C2.99345 5.50791 1.79904 7.89675 2.24695 11.1814C8.36835 9.24047 14.639 9.24047 20.9098 11.1814ZM2.24695 13.1223C2.54555 15.0633 3.44138 15.6605 5.08371 15.0633C7.32324 14.1675 9.41348 13.1223 11.8023 13.5702C13.8926 13.8688 15.8335 14.6154 17.7744 15.2126C19.566 15.8098 20.4618 15.0633 20.6112 13.1223C14.4898 11.0321 8.36835 11.0321 2.24695 13.1223Z" fill="#070308"/>
<path opacity="0.3" fill-rule="evenodd" clip-rule="evenodd" d="M3.88917 21.0354C2.24685 20.7368 1.50033 19.2438 2.24684 17.7507C2.39614 17.4521 2.84404 17.3028 3.29195 17.1535C4.78498 16.7056 6.27801 16.5563 7.62174 15.9591C10.4585 14.914 12.9966 14.914 15.8334 16.1084C17.1771 16.5563 18.5208 16.8549 19.8645 17.1535C20.611 17.3028 21.059 17.6014 21.059 18.3479C21.059 18.6465 21.059 18.7958 21.059 19.0945C21.2083 20.2889 20.9096 21.1847 19.4166 21.0354C17.625 26.5596 15.5348 28.6498 11.5036 28.5005C7.47242 28.5005 5.08359 26.1117 3.88917 21.0354ZM13.4445 20.8861C14.0417 20.8861 14.639 20.8861 15.0869 20.8861C15.0869 20.2889 15.0869 19.841 15.0869 19.2438C14.4896 19.2438 14.0417 19.2438 13.4445 19.2438C13.4445 19.841 13.4445 20.2889 13.4445 20.8861ZM9.56267 19.2438C8.96546 19.2438 8.51755 19.2438 7.92034 19.2438C7.92034 19.841 7.92034 20.4382 7.92034 20.8861C8.51755 20.8861 8.96546 20.8861 9.56267 20.8861C9.56267 20.2889 9.56267 19.841 9.56267 19.2438Z" fill="white"/>
<path opacity="0.3" fill-rule="evenodd" clip-rule="evenodd" d="M20.9099 11.1814C14.6392 9.24044 8.36845 9.24044 2.24705 11.1814C1.79914 7.89672 2.99356 5.50788 5.5317 3.86555C9.41357 1.47671 13.4447 1.47672 17.3266 3.71625C20.0141 5.35858 21.2085 7.74742 20.9099 11.1814ZM11.5038 7.74741C13.1461 7.74741 14.3406 7.00091 14.3406 5.95579C14.3406 4.91067 13.2954 4.16415 11.6531 4.16415H11.5038C9.86147 4.16415 8.81637 4.91067 8.81637 5.95579C8.66707 6.8516 9.86147 7.74741 11.5038 7.74741Z" fill="white"/>
<path opacity="0.3" fill-rule="evenodd" clip-rule="evenodd" d="M2.24646 13.1222C8.36786 11.032 14.4893 11.032 20.76 13.1222C20.76 15.0632 19.7148 15.6604 17.9232 15.2125C15.9823 14.6153 13.8921 13.8688 11.9511 13.5702C9.56228 13.2715 7.32274 14.3167 5.23251 15.0632C3.44088 15.6604 2.54506 15.0632 2.24646 13.1222Z" fill="white"/>
<path opacity="0.3" fill-rule="evenodd" clip-rule="evenodd" d="M13.4447 20.886C13.4447 20.2888 13.4447 19.8409 13.4447 19.2437C14.0419 19.2437 14.4898 19.2437 15.087 19.2437C15.087 19.8409 15.087 20.2888 15.087 20.886C14.6391 20.886 14.0419 20.886 13.4447 20.886Z" fill="#070308"/>
<path opacity="0.3" fill-rule="evenodd" clip-rule="evenodd" d="M9.56262 19.2437C9.56262 19.8409 9.56262 20.2888 9.56262 20.886C8.96541 20.886 8.5175 20.886 7.92029 20.886C7.92029 20.4381 7.92029 19.8409 7.92029 19.2437C8.3682 19.2437 8.96541 19.2437 9.56262 19.2437Z" fill="#070308"/>
<path opacity="0.3" fill-rule="evenodd" clip-rule="evenodd" d="M11.5031 7.74758C9.86079 7.74758 8.66638 7.00107 8.66638 5.80665C8.66638 4.76153 9.86081 4.01501 11.3538 4.01501H11.5031C13.1454 4.01501 14.1906 4.76153 14.1906 5.80665C14.3399 7.00107 13.1454 7.74758 11.5031 7.74758Z" fill="#070308"/>
</g>
</svg>
