<svg width="27" height="21" viewBox="0 0 27 21" fill="none" xmlns="http://www.w3.org/2000/svg">
<g opacity="0.3">
<path opacity="0.3" d="M8.67038 12.4594C12.146 12.4594 15.5018 12.4594 18.8576 12.4594C18.8576 14.3096 18.8576 16.0174 18.8576 17.7253C18.8576 18.2945 19.0973 19.1485 19.4569 19.4331C21.1348 20.8563 23.2921 19.4331 23.4119 17.0137C23.4119 16.8713 23.5318 16.729 23.5318 16.4444C25.8089 16.0174 26.1685 15.4481 26.1685 12.744C26.1685 11.3208 26.1685 10.0399 26.1685 8.61673C26.1685 5.34336 26.0486 5.20104 23.4119 4.34712C23.4119 4.06248 23.4119 3.77783 23.2921 3.63551C23.1722 1.35839 23.0524 1.21607 20.6554 1.21607C19.0973 1.21607 18.6179 2.07 18.7378 3.77784C18.8576 5.34337 18.7378 7.05121 18.7378 8.61673C15.1423 8.61673 11.9063 8.61673 8.55054 8.61673C8.55054 6.76657 8.67039 4.91642 8.55054 3.20857C8.55054 2.63929 8.19098 1.78535 7.71158 1.50071C5.67413 0.362142 4.11609 1.64304 3.87639 4.20481C3.87639 4.34713 3.75654 4.48945 3.63669 4.63178C1.35955 5.05874 1 5.4857 1 8.18979C1 9.61299 1 11.0362 1 12.4594C1 15.7328 1.2397 16.0174 3.75655 16.729C3.75655 17.0137 3.75655 17.2983 3.75655 17.7253C3.8764 19.7177 4.11608 19.8601 6.51308 19.8601C7.95128 19.8601 8.55053 19.1485 8.43068 17.4406C8.55053 15.7328 8.67038 14.1672 8.67038 12.4594Z" fill="white" stroke="#070308" stroke-width="0.25" stroke-miterlimit="10" stroke-linecap="round" stroke-linejoin="round"/>
<path opacity="0.3" fill-rule="evenodd" clip-rule="evenodd" d="M8.67067 12.4593C8.67067 14.1671 8.67067 15.7327 8.67067 17.2982C8.79052 19.006 8.19129 19.7176 6.75309 19.7176C4.47594 19.7176 4.11639 19.5753 3.99654 17.5828C3.99654 17.2982 3.99654 17.0136 3.99654 16.5866C1.35984 15.875 1.23999 15.448 1.23999 12.317C1.23999 10.8938 1.23999 9.47056 1.23999 8.04736C1.23999 5.34327 1.59954 4.91631 3.87668 4.48935C3.87668 4.34703 3.99653 4.2047 4.11638 4.06238C4.23623 1.50061 5.91414 0.362055 7.95159 1.3583C8.31114 1.64294 8.67068 2.49686 8.79053 3.06614C8.91038 4.77399 8.79053 6.62416 8.79053 8.47432C12.1463 8.47432 15.5021 8.47432 18.9778 8.47432C18.9778 6.9088 18.9778 5.20094 18.9778 3.63541C18.8579 1.92757 19.3373 1.07366 20.8954 1.07366C23.2923 1.07366 23.4122 1.21598 23.5321 3.49311C23.5321 3.77775 23.5321 4.06239 23.6519 4.20471C26.2886 5.05863 26.4085 5.20095 26.4085 8.47432C26.4085 9.89753 26.4085 11.1784 26.4085 12.6016C26.4085 15.448 26.0489 15.875 23.7718 16.302C23.7718 16.4443 23.6519 16.5866 23.6519 16.8712C23.5321 19.2907 21.2549 20.7139 19.6969 19.2907C19.3373 19.006 19.0976 18.1521 19.0976 17.5828C18.9778 15.875 19.0976 14.1671 19.0976 12.317C15.3823 12.4593 12.1463 12.4593 8.67067 12.4593ZM22.9328 10.3245C22.9328 8.04737 22.813 5.91254 22.9328 3.63541C22.9328 2.21221 22.5733 1.64294 21.3748 1.64294C20.2961 1.64294 19.3373 1.64294 19.3373 3.49311C19.4572 8.04736 19.4572 12.6016 19.3373 17.1559C19.3373 19.006 20.1763 18.8637 21.2549 18.8637C22.4534 18.8637 22.9328 18.4368 22.9328 17.0136C22.9328 14.8787 22.9328 12.6016 22.9328 10.3245ZM4.59579 10.4668C4.59579 12.7439 4.71564 15.1634 4.59579 17.4405C4.59579 19.006 5.19503 19.1484 6.27368 19.1484C7.11263 19.1484 8.19128 19.433 8.19128 17.5828C8.19128 12.8863 8.19128 8.04735 8.19128 3.35078C8.19128 1.78525 7.47217 1.78526 6.51337 1.78526C5.55458 1.78526 4.59578 1.64293 4.71563 3.35078C4.59578 5.77023 4.59579 8.04735 4.59579 10.4668ZM18.7381 9.32823C15.2624 9.32823 12.0265 9.32823 8.67067 9.32823C8.67067 10.1822 8.67068 10.7514 8.79053 11.463C12.1463 11.463 15.5021 11.463 18.8579 11.463C18.8579 10.7514 18.7381 10.0398 18.7381 9.32823ZM3.99654 15.5904C3.99654 12.6016 3.99654 9.89753 3.99654 7.05112C3.99654 6.33952 4.35609 5.05863 3.15759 5.20095C2.55835 5.34327 1.83923 6.33952 1.71938 7.05112C1.47968 9.18593 1.59954 11.1784 1.59954 13.3132C1.71939 15.0211 2.43849 15.875 3.99654 15.5904ZM23.5321 5.34328C23.5321 8.90129 23.5321 12.1747 23.5321 15.5904C25.21 15.7327 25.6893 15.3057 25.6893 13.5978C25.6893 11.463 25.6893 9.47056 25.6893 7.33576C25.8092 5.62791 25.0901 5.05864 23.5321 5.34328Z" fill="black" stroke="#070308" stroke-width="0.25" stroke-miterlimit="10" stroke-linecap="round" stroke-linejoin="round"/>
<path opacity="0.3" fill-rule="evenodd" clip-rule="evenodd" d="M22.9324 10.3246C22.9324 12.6018 22.9324 14.8789 22.9324 17.156C22.9324 18.5792 22.453 19.1485 21.2545 19.0062C20.1759 19.0062 19.3369 19.1485 19.3369 17.2983C19.4568 12.7441 19.4568 8.18981 19.3369 3.63555C19.3369 1.78538 20.1759 1.7854 21.3744 1.7854C22.5729 1.7854 23.0523 2.35467 22.9324 3.77788C22.8126 5.91269 22.9324 8.18982 22.9324 10.3246Z" fill="white" stroke="#070308" stroke-width="0.25" stroke-miterlimit="10" stroke-linecap="round" stroke-linejoin="round"/>
<path opacity="0.3" fill-rule="evenodd" clip-rule="evenodd" d="M4.59642 10.4667C4.59642 8.18957 4.59642 5.77013 4.59642 3.493C4.47657 1.78515 5.43537 1.92746 6.39417 1.92746C7.35297 1.92746 8.07206 1.92747 8.07206 3.493C8.07206 8.18958 8.07206 13.0285 8.07206 17.7251C8.07206 19.5752 6.99342 19.1482 6.15447 19.2906C5.19567 19.2906 4.47656 19.1482 4.47656 17.5827C4.71626 15.1633 4.59642 12.7438 4.59642 10.4667Z" fill="white" stroke="#070308" stroke-width="0.25" stroke-miterlimit="10" stroke-linecap="round" stroke-linejoin="round"/>
<path opacity="0.3" fill-rule="evenodd" clip-rule="evenodd" d="M18.7383 9.32837C18.7383 10.04 18.7383 10.6093 18.8581 11.4632C15.5023 11.4632 12.1466 11.4632 8.79076 11.4632C8.79076 10.7516 8.79075 10.1823 8.6709 9.32837C12.0267 9.32837 15.3825 9.32837 18.7383 9.32837Z" fill="white" stroke="#070308" stroke-width="0.25" stroke-miterlimit="10" stroke-linecap="round" stroke-linejoin="round"/>
<path opacity="0.3" fill-rule="evenodd" clip-rule="evenodd" d="M3.99657 15.5904C2.31867 15.875 1.71941 15.0211 1.71941 13.4556C1.71941 11.3208 1.59957 9.32827 1.83927 7.19347C1.95912 6.48186 2.67821 5.48564 3.27746 5.34332C4.47596 5.05867 4.11641 6.33954 4.11641 7.19347C3.99656 9.89755 3.99657 12.6017 3.99657 15.5904Z" fill="white" stroke="#070308" stroke-width="0.25" stroke-miterlimit="10" stroke-linecap="round" stroke-linejoin="round"/>
<path opacity="0.3" fill-rule="evenodd" clip-rule="evenodd" d="M23.5313 5.34315C24.9694 5.05851 25.6885 5.77011 25.8084 7.33563C25.8084 9.47044 25.8084 11.4629 25.8084 13.5977C25.8084 15.3056 25.329 15.7325 23.6511 15.5902C23.5312 12.1745 23.5313 8.75885 23.5313 5.34315Z" fill="white" stroke="#070308" stroke-width="0.25" stroke-miterlimit="10" stroke-linecap="round" stroke-linejoin="round"/>
</g>
</svg>
