<svg width="20" height="19" viewBox="0 0 20 19" fill="none" xmlns="http://www.w3.org/2000/svg">
<path opacity="0.3" d="M19.9414 4.02725C19.8414 3.62725 19.5414 3.42727 19.3414 3.22727C19.2414 3.12727 19.2414 3.12725 19.1414 3.02725C18.9414 2.82725 18.7414 2.62728 18.6414 2.42728C18.6414 2.32728 18.5414 2.22726 18.5414 2.12726C18.4414 1.92726 18.3414 1.62728 18.1414 1.42728C18.0414 1.32728 17.9414 1.32727 17.8414 1.32727C17.7414 1.22727 17.6414 1.22726 17.6414 1.12726C17.5414 0.927259 17.4414 0.727253 17.3414 0.527253V0.427278C17.2414 0.227278 17.2414 0.0272531 17.0414 0.0272531C16.8414 -0.0727469 16.6414 0.127265 16.4414 0.227265C16.0414 0.527265 15.6414 0.927271 15.3414 1.32727C15.2414 1.42727 15.1414 1.62727 15.0414 1.72727C14.8414 1.92727 14.6414 2.12728 14.3414 2.42728C14.2414 2.52728 14.1414 2.72726 13.9414 3.12726C13.8414 3.32726 13.6414 3.62727 13.5414 3.82727C13.2414 3.82727 12.9414 3.92725 12.8414 4.02725C11.7414 5.82725 9.94141 6.02727 8.34141 5.72727C6.14141 5.32727 3.84142 5.22726 1.54142 6.12726C1.24142 5.42726 0.941414 4.72726 0.641414 4.12726C0.541414 3.82726 0.541414 3.42726 0.141414 3.62726C0.0414141 3.72726 -0.0585767 4.12727 0.0414233 4.32727C0.341423 5.02727 0.641417 5.62727 0.941417 6.32727C1.04142 6.52727 1.14142 6.72728 1.04142 6.92728C0.241423 8.32728 0.541414 9.72726 1.14141 11.1273C1.44141 11.8273 1.44141 12.3273 1.14141 13.1273C0.541414 14.8273 0.841417 16.5273 1.94142 17.9273C2.34142 18.5273 3.14141 18.5273 3.64141 18.1273C3.94141 17.8273 3.94142 17.3273 3.44142 16.7273C2.74142 15.9273 2.84142 15.1273 3.54142 14.3273C4.14142 13.6273 4.64142 12.9273 4.94142 12.1273C5.14142 11.6273 5.44142 11.3273 5.94142 11.1273C7.24142 10.6273 8.54141 10.9273 9.84141 11.2273C11.4414 11.7273 12.3414 12.9273 12.4414 14.6273C12.4414 15.3273 12.5414 16.0273 12.8414 16.6273C13.1414 17.4273 13.5414 18.3273 14.6414 18.3273C14.9414 18.3273 15.5414 18.2273 15.6414 18.0273C15.7414 17.8273 15.5414 17.3273 15.4414 17.0273C15.2414 16.5273 14.8414 16.1273 14.8414 15.7273C14.6414 14.2273 14.4414 12.8273 15.6414 11.5273C16.4414 10.7273 16.3414 9.62726 16.2414 8.62726C16.2414 8.12726 16.2414 7.62726 16.3414 7.12726C16.4414 6.82726 16.6414 6.42726 16.7414 6.12726C16.8414 6.02726 16.9414 5.92727 17.0414 5.72727C17.0414 5.62727 17.1414 5.52725 17.1414 5.52725C17.1414 5.52725 17.2414 5.52725 17.4414 5.52725C17.7414 5.52725 18.0414 5.62726 18.3414 5.62726H18.5414C19.0414 5.72726 19.6414 5.62727 19.9414 5.22727C19.9414 4.82727 20.0414 4.42725 19.9414 4.02725ZM15.1414 10.0273C15.0414 10.5273 14.8414 11.0273 14.3414 11.3273C14.2414 11.4273 14.0414 11.5273 14.0414 11.6273C13.6414 13.0273 13.4414 14.5273 13.8414 15.9273C13.9414 16.4273 14.3414 16.9273 14.5414 17.4273C14.0414 17.5273 13.6414 17.1273 13.5414 16.7273C13.2414 16.0273 13.0414 15.3273 12.9414 14.6273C12.8414 12.3273 11.6414 10.7273 8.94142 10.2273C7.54142 10.0273 6.24142 9.82725 5.04142 10.5273C4.54142 10.7273 4.24142 11.1273 4.04142 11.6273C3.84142 12.3273 3.44141 13.0273 2.84141 13.5273C1.74141 14.5273 1.64141 16.1273 2.64141 17.1273C2.74141 17.2273 2.74141 17.3273 2.84141 17.4273C2.24141 17.5273 2.04141 17.1273 1.84141 16.8273C1.24141 15.5273 0.941423 14.2273 1.54142 12.9273C1.84142 12.2273 1.74142 11.6273 1.44142 10.9273C1.04142 9.92728 0.641417 9.02728 0.941417 7.92728C1.14142 7.02728 1.74142 6.62727 2.54142 6.32727C3.84142 6.02727 5.24141 6.02726 6.64141 6.12726C7.44141 6.22726 8.34141 6.32728 9.14141 6.42728C10.0414 6.52728 10.8414 6.32726 11.5414 5.62726C11.8414 5.32726 12.2414 5.02727 12.6414 4.82727C12.7414 4.72727 12.9414 4.82727 13.1414 4.82727C13.8414 5.32727 14.5414 5.92728 15.2414 6.42728C15.3414 6.52728 15.3414 6.62727 15.3414 6.72727C15.3414 7.92727 15.2414 9.02725 15.1414 10.0273ZM19.2414 4.72727C19.0414 4.92727 18.7414 5.02728 18.4414 4.92728H18.2414C17.9414 4.82728 17.6414 4.82727 17.1414 4.72727C16.9414 4.72727 16.7414 4.72728 16.4414 4.92728C16.3414 5.02728 16.2414 5.12727 16.1414 5.32727C16.1414 5.42727 16.0414 5.52725 16.0414 5.52725C15.7414 5.92725 15.5414 5.92726 15.2414 5.62726C14.8414 5.32726 14.4414 5.02727 13.9414 4.72727C13.8414 4.62727 13.7414 4.52728 13.6414 4.42728C13.8414 4.32728 14.0414 4.02727 14.3414 3.32727C14.4414 3.12727 14.6414 2.82727 14.6414 2.82727C14.9414 2.62727 15.1414 2.32726 15.3414 2.12726C15.4414 2.02726 15.5414 1.82727 15.7414 1.72727C16.0414 1.32727 16.3414 1.02727 16.6414 0.827271C16.7414 1.12727 16.8414 1.32726 17.0414 1.62726C17.2414 1.82726 17.4414 1.92725 17.5414 2.02725C17.6414 2.02725 17.6414 2.12726 17.7414 2.12726C17.7414 2.12726 17.8414 2.32728 17.9414 2.42728C17.9414 2.52728 18.0414 2.72727 18.1414 2.82727C18.3414 3.12727 18.5414 3.32725 18.8414 3.52725C18.9414 3.62725 19.0414 3.62727 19.0414 3.72727C19.2414 3.82727 19.4414 4.02726 19.4414 4.12726C19.4414 4.32726 19.3414 4.52727 19.2414 4.72727Z" fill="black"/>
</svg>
