<svg width="30" height="28" viewBox="0 0 30 28" fill="none" xmlns="http://www.w3.org/2000/svg">
<path d="M29.625 27.3H23.5386V0.35C23.5386 0.156714 23.3707 0 23.1636 0H13.3425C13.1354 0 12.9675 0.156714 12.9675 0.35V3.95749H6.83643C6.62933 3.95749 6.46143 4.11421 6.46143 4.3075V27.3H0.375C0.167908 27.3 0 27.4567 0 27.65C0 27.8433 0.167908 28 0.375 28H29.625C29.8321 28 30 27.8433 30 27.65C30 27.4567 29.8321 27.3 29.625 27.3ZM13.7175 0.7H22.7886V27.3H16.9893V4.3075C16.9893 4.11421 16.8214 3.95749 16.6143 3.95749H13.7175V0.7ZM7.21143 4.6575H16.2393V27.3H7.21143V4.6575Z" fill="#E8E8E8"/>
<path d="M10.088 6.79968C9.88092 6.79968 9.71301 6.9564 9.71301 7.14968V8.87148C9.71301 9.06477 9.88092 9.22148 10.088 9.22148C10.2951 9.22148 10.463 9.06477 10.463 8.87148V7.14968C10.463 6.9564 10.2951 6.79968 10.088 6.79968Z" fill="#E8E8E8"/>
<path d="M13.3627 6.79968C13.1556 6.79968 12.9877 6.9564 12.9877 7.14968V8.87148C12.9877 9.06477 13.1556 9.22148 13.3627 9.22148C13.5698 9.22148 13.7377 9.06477 13.7377 8.87148V7.14968C13.7377 6.9564 13.5698 6.79968 13.3627 6.79968Z" fill="#E8E8E8"/>
<path d="M10.088 10.9796C9.88092 10.9796 9.71301 11.1363 9.71301 11.3296V13.0515C9.71301 13.2448 9.88092 13.4015 10.088 13.4015C10.2951 13.4015 10.463 13.2448 10.463 13.0515V11.3296C10.463 11.1363 10.2951 10.9796 10.088 10.9796Z" fill="#E8E8E8"/>
<path d="M13.3627 10.9796C13.1556 10.9796 12.9877 11.1363 12.9877 11.3296V13.0515C12.9877 13.2448 13.1556 13.4015 13.3627 13.4015C13.5698 13.4015 13.7377 13.2448 13.7377 13.0515V11.3296C13.7377 11.1363 13.5698 10.9796 13.3627 10.9796Z" fill="#E8E8E8"/>
<path d="M10.088 15.1595C9.88092 15.1595 9.71301 15.3163 9.71301 15.5095V17.2313C9.71301 17.4246 9.88092 17.5813 10.088 17.5813C10.2951 17.5813 10.463 17.4246 10.463 17.2313V15.5095C10.463 15.3163 10.2951 15.1595 10.088 15.1595Z" fill="#E8E8E8"/>
<path d="M13.3627 15.1595C13.1556 15.1595 12.9877 15.3163 12.9877 15.5095V17.2313C12.9877 17.4246 13.1556 17.5813 13.3627 17.5813C13.5698 17.5813 13.7377 17.4246 13.7377 17.2313V15.5095C13.7377 15.3163 13.5698 15.1595 13.3627 15.1595Z" fill="#E8E8E8"/>
<path d="M10.088 19.1398C9.88092 19.1398 9.71301 19.2965 9.71301 19.4898V21.2117C9.71301 21.405 9.88092 21.5617 10.088 21.5617C10.2951 21.5617 10.463 21.405 10.463 21.2117V19.4898C10.463 19.2965 10.2951 19.1398 10.088 19.1398Z" fill="#E8E8E8"/>
<path d="M13.3627 19.1398C13.1556 19.1398 12.9877 19.2965 12.9877 19.4898V21.2117C12.9877 21.405 13.1556 21.5617 13.3627 21.5617C13.5698 21.5617 13.7377 21.405 13.7377 21.2117V19.4898C13.7377 19.2965 13.5698 19.1398 13.3627 19.1398Z" fill="#E8E8E8"/>
<path d="M10.088 23.1202C9.88092 23.1202 9.71301 23.2769 9.71301 23.4702V25.192C9.71301 25.3853 9.88092 25.542 10.088 25.542C10.2951 25.542 10.463 25.3853 10.463 25.192V23.4702C10.463 23.2769 10.2951 23.1202 10.088 23.1202Z" fill="#E8E8E8"/>
<path d="M13.3627 23.1202C13.1556 23.1202 12.9877 23.2769 12.9877 23.4702V25.192C12.9877 25.3853 13.1556 25.542 13.3627 25.542C13.5698 25.542 13.7377 25.3853 13.7377 25.192V23.4702C13.7377 23.2769 13.5698 23.1202 13.3627 23.1202Z" fill="#E8E8E8"/>
<path d="M19.8904 25.542C20.0975 25.542 20.2654 25.3853 20.2654 25.192V23.4702C20.2654 23.2769 20.0975 23.1202 19.8904 23.1202C19.6833 23.1202 19.5154 23.2769 19.5154 23.4702V25.192C19.5154 25.3853 19.6833 25.542 19.8904 25.542Z" fill="#E8E8E8"/>
<path d="M19.8904 21.4601C20.0975 21.4601 20.2654 21.3033 20.2654 21.1101V19.3881C20.2654 19.1948 20.0975 19.0381 19.8904 19.0381C19.6833 19.0381 19.5154 19.1948 19.5154 19.3881V21.1101C19.5154 21.3033 19.6833 21.4601 19.8904 21.4601Z" fill="#E8E8E8"/>
<path d="M19.8904 17.378C20.0975 17.378 20.2654 17.2213 20.2654 17.028V15.3062C20.2654 15.1129 20.0975 14.9562 19.8904 14.9562C19.6833 14.9562 19.5154 15.1129 19.5154 15.3062V17.028C19.5154 17.2213 19.6833 17.378 19.8904 17.378Z" fill="#E8E8E8"/>
<path d="M19.8904 13.2961C20.0975 13.2961 20.2654 13.1394 20.2654 12.9461V11.2243C20.2654 11.031 20.0975 10.8743 19.8904 10.8743C19.6833 10.8743 19.5154 11.031 19.5154 11.2243V12.9461C19.5154 13.1394 19.6833 13.2961 19.8904 13.2961Z" fill="#E8E8E8"/>
<path d="M19.8904 9.21415C20.0975 9.21415 20.2654 9.05743 20.2654 8.86415V7.14218C20.2654 6.94889 20.0975 6.79218 19.8904 6.79218C19.6833 6.79218 19.5154 6.94889 19.5154 7.14218V8.86415C19.5154 9.05743 19.6833 9.21415 19.8904 9.21415Z" fill="#E8E8E8"/>
<path d="M19.8904 5.13207C20.0975 5.13207 20.2654 4.97535 20.2654 4.78207V3.06027C20.2654 2.86698 20.0975 2.71027 19.8904 2.71027C19.6833 2.71027 19.5154 2.86698 19.5154 3.06027V4.78207C19.5154 4.97535 19.6833 5.13207 19.8904 5.13207Z" fill="#E8E8E8"/>
</svg>
