<svg width="29" height="16" viewBox="0 0 29 16" fill="none" xmlns="http://www.w3.org/2000/svg">
<g opacity="0.3">
<path opacity="0.3" d="M16.9796 4.29999V1H1V4.29999H6.27405L4.46356 8.60004H2.33819V9.29999H4.14869L1.70846 15L2.18076 15.3L4.77843 9.29999H13.4373L16.035 15.3L16.5073 15L14.0671 9.29999H15.9563V8.60004H13.8309L12.0204 4.29999H16.9796ZM1.55102 1.70001H16.4286V3.60004H1.55102V1.70001ZM13.1225 8.60004H5.01458L6.82508 4.29999H11.312L13.1225 8.60004Z" fill="black" stroke="black" stroke-width="0.1" stroke-miterlimit="10"/>
<path opacity="0.3" d="M28 9.5V6.90002H19.4985V9.5H20.9154L23.5131 12.1L20.8367 14.8L21.1516 15.2L23.9067 12.4L26.6618 15.2L26.9767 14.8L24.3003 12.1L26.898 9.5H28ZM19.9708 7.5H27.6064V8.90002H19.9708V7.5ZM23.828 11.8L21.6239 9.5H26.1108L23.828 11.8Z" fill="black" stroke="black" stroke-width="0.1" stroke-miterlimit="10"/>
</g>
</svg>
