<svg width="21" height="27" viewBox="0 0 21 27" fill="none" xmlns="http://www.w3.org/2000/svg">
<path d="M10.5001 16.017C13.5484 16.017 16.0195 13.5458 16.0195 10.4976C16.0195 7.44927 13.5484 4.97815 10.5001 4.97815C7.45184 4.97815 4.98071 7.44927 4.98071 10.4976C4.98071 13.5458 7.45184 16.017 10.5001 16.017Z" fill="black"/>
<path d="M10.5 26.4086L18.8675 16.5802C18.8686 16.579 18.8695 16.5777 18.8706 16.5765C19.5758 15.76 20.0401 14.9992 20.3319 14.1824C20.3333 14.1785 20.3347 14.1746 20.3361 14.1708C21.5434 10.9779 21.0859 7.36659 19.1123 4.51035C17.1316 1.64396 13.9926 0 10.5 0C7.00736 0 3.86832 1.64396 1.88774 4.51035C-0.0858384 7.36652 -0.543412 10.9779 0.663891 14.1708C0.969434 14.9957 1.46199 15.8037 2.12945 16.5765L10.5 26.4086ZM10.5 3.63261C14.2853 3.63261 17.3648 6.71212 17.3648 10.4974C17.3648 14.2827 14.2853 17.3622 10.5 17.3622C6.71467 17.3622 3.63516 14.2827 3.63516 10.4974C3.63516 6.71212 6.71467 3.63261 10.5 3.63261Z" fill="black"/>
</svg>
