<svg width="19" height="16" viewBox="0 0 19 16" fill="none" xmlns="http://www.w3.org/2000/svg">
<path d="M9.55729 13.4513C5.85228 13.4513 2.83163 10.4307 2.83163 6.72565C2.83163 3.02064 5.85228 0 9.55729 0C13.2623 0 16.2829 3.02064 16.2829 6.72565C16.2829 10.4307 13.2859 13.4513 9.55729 13.4513ZM9.55729 0.896753C6.34785 0.896753 3.72839 3.51622 3.72839 6.72565C3.72839 9.93508 6.34785 12.5545 9.55729 12.5545C12.7667 12.5545 15.3862 9.93508 15.3862 6.72565C15.4098 3.49262 12.7903 0.896753 9.55729 0.896753Z" fill="#B3B3B3"/>
<path d="M13.8283 10.9733C14.0642 10.7373 14.4418 10.7373 14.6778 10.9733L18.4772 14.7727C18.7132 15.0086 18.7132 15.3862 18.4772 15.6222C18.2412 15.8582 17.8636 15.8582 17.6277 15.6222L13.8283 11.8228C13.5923 11.5868 13.5923 11.2092 13.8283 10.9733Z" fill="#B3B3B3"/>
<path d="M0.448377 11.5162H2.83185C3.09144 11.5162 3.28023 11.7286 3.28023 11.9646C3.28023 12.2242 3.06784 12.413 2.83185 12.413H0.448377C0.18879 12.413 0 12.2006 0 11.9646C0 11.705 0.18879 11.5162 0.448377 11.5162Z" fill="#B3B3B3"/>
<path d="M0.448377 13.3097H4.93214C5.19173 13.3097 5.38052 13.5221 5.38052 13.7581C5.38052 14.0177 5.16813 14.2064 4.93214 14.2064H0.448377C0.18879 14.2064 0 13.9941 0 13.7581C0 13.4985 0.18879 13.3097 0.448377 13.3097Z" fill="#B3B3B3"/>
<path d="M0.448377 15.1031H6.72565C6.98524 15.1031 7.17403 15.3155 7.17403 15.5515C7.17403 15.8111 6.96164 15.9999 6.72565 15.9999H0.448377C0.18879 15.9999 0 15.7875 0 15.5515C0 15.2919 0.18879 15.1031 0.448377 15.1031Z" fill="#B3B3B3"/>
</svg>
