<svg width="26" height="30" viewBox="0 0 26 30" fill="none" xmlns="http://www.w3.org/2000/svg">
<path d="M25.3964 19.0475L18.0562 7.05468C18.5079 6.63205 18.9075 6.16244 19.2471 5.65482C20.0806 4.38117 20.2295 3.17224 19.6661 2.25167C18.5447 0.419041 15.0033 0.433781 11.6037 2.28506C11.1523 2.5345 10.7183 2.81064 10.304 3.1119L9.90041 2.67983C9.41922 2.16576 8.72734 1.87095 8.00031 1.87049C7.27352 1.87095 6.58164 2.16576 6.10045 2.67983L0.634507 8.52318C0.225825 8.95986 0.000244344 9.52252 0.000488479 10.1052V24.9436C0.0034181 27.287 2.01631 29.1862 4.50039 29.1888H11.5002C13.9843 29.1862 15.9974 27.287 16.0001 24.9436V10.1052C15.9991 9.65081 15.8602 9.20607 15.6002 8.82351H15.6041C16.202 8.49738 16.7694 8.12404 17.3001 7.70763L24.5304 19.5192C25.4977 21.0984 24.9245 23.1183 23.25 24.0304L17.1881 27.3322C16.9215 27.4759 16.6356 27.5858 16.3382 27.6585C16.0714 27.7256 15.9125 27.984 15.9835 28.2357C16.0543 28.4874 16.3282 28.6374 16.5953 28.5704C16.9767 28.4757 17.3434 28.3341 17.6856 28.1491L23.7475 24.8473C25.901 23.6757 26.6395 21.0786 25.3964 19.0475ZM15.0001 24.9436C14.9979 26.7663 13.4323 28.2433 11.5002 28.2454H4.50039C2.56854 28.2433 1.00266 26.7663 1.00047 24.9436V10.1052C1.00047 9.75238 1.13694 9.41174 1.38449 9.14711L6.85043 3.30444C7.14144 2.99283 7.56013 2.8141 8.00031 2.81387C8.44048 2.8141 8.85942 2.99283 9.15043 3.30444L14.0268 8.51788C12.9121 9.01398 11.6938 9.26894 10.4614 9.26411C10.4841 9.14595 10.4971 9.02619 10.5002 8.90619C10.4988 7.60422 9.3804 6.54937 8.00031 6.54776C7.94538 6.54937 7.89118 6.55973 7.83991 6.57839C7.58796 6.54914 7.35359 6.70483 7.29744 6.93837C7.11947 7.58303 7.20687 8.2673 7.54182 8.85368C7.87409 9.37282 8.39092 9.76366 9.00028 9.95621C8.56206 10.3335 7.92853 10.43 7.38655 10.2024C6.84433 9.97463 6.49668 9.46586 6.50034 8.90619C6.50034 8.64571 6.27647 8.43451 6.00035 8.43451C5.72423 8.43451 5.50036 8.64571 5.50036 8.90619C5.49914 9.95183 6.22862 10.8731 7.29207 11.1684C8.35528 11.4636 9.49759 11.0622 10.0969 10.1826C10.2937 10.2022 10.4915 10.2125 10.6895 10.2132C12.0852 10.1734 13.4553 9.84796 14.7047 9.2595C14.8954 9.50502 14.9987 9.80097 15.0001 10.1052V24.9436ZM9.50027 8.90619C9.49832 8.97529 9.49099 9.04415 9.4783 9.11233C9.03715 9.00408 8.65508 8.74359 8.40801 8.38199C8.25372 8.11644 8.18756 7.81334 8.21783 7.51186C8.95219 7.61343 9.49734 8.20603 9.50027 8.90619ZM15.1037 8.00243C15.0539 8.02984 15.0038 8.05333 14.9538 8.07982L10.9687 3.81897C11.3315 3.5594 11.7107 3.3208 12.1037 3.1043C14.9203 1.56947 17.9871 1.39604 18.7996 2.72704C19.1712 3.33323 19.0276 4.19876 18.3961 5.16333C18.1463 5.53759 17.8585 5.8879 17.5362 6.20896L17.5311 6.20044C17.2228 5.69582 16.7291 5.31487 16.1437 5.12924L14.1857 4.50485C13.9269 4.43046 13.6523 4.56381 13.5661 4.80564C13.4797 5.04771 13.6132 5.3105 13.8674 5.39871L15.8253 6.01987C16.1796 6.1325 16.4781 6.36304 16.6651 6.66844L16.7926 6.87642C16.2679 7.30089 15.7025 7.67815 15.1037 8.00382V8.00243Z" fill="#B3B3B3"/>
</svg>
