<svg width="15" height="16" viewBox="0 0 15 16" fill="none" xmlns="http://www.w3.org/2000/svg">
<path d="M14.7223 14.359L11.8524 11.4544C12.9226 10.24 13.5873 8.63179 13.5873 6.8759C13.5873 3.08513 10.5391 0 6.79366 0C3.04823 0 0 3.08513 0 6.8759C0 10.6667 3.04823 13.7518 6.79366 13.7518C8.12321 13.7518 9.35547 13.3579 10.3932 12.7015L13.3765 15.721C13.5549 15.9015 13.7981 16 14.0413 16C14.2845 16 14.5277 15.9015 14.7061 15.721C15.0952 15.3436 15.0952 14.7364 14.7223 14.359ZM1.89704 6.8759C1.89704 4.1518 4.08592 1.92 6.79366 1.92C9.5014 1.92 11.6741 4.1518 11.6741 6.8759C11.6741 9.6 9.48518 11.8318 6.79366 11.8318C4.10214 11.8318 1.89704 9.61641 1.89704 6.8759Z" fill="#1B181C"/>
</svg>
